<svg width="160" height="160" viewBox="0 0 160 160" xmlns="http://www.w3.org/2000/svg">
  <defs>
    <!-- Orange Gradient -->
    <linearGradient id="orangeGrad" x1="0%" y1="0%" x2="100%" y2="100%">
      <stop offset="0%" stop-color="#fb923c"/>
      <stop offset="50%" stop-color="#ea580c"/>
      <stop offset="100%" stop-color="#c2410c"/>
    </linearGradient>
    
    <!-- Dark to Orange for center -->
    <linearGradient id="centerGrad" x1="0%" y1="0%" x2="100%" y2="100%">
      <stop offset="0%" stop-color="#ea580c"/>
      <stop offset="100%" stop-color="#fb923c"/>
    </linearGradient>
  </defs>

  <!-- Triangle Formation - AI at Top, Platforms Below -->
  
  <!-- Center AI Brain (Hexagonal) - At Top -->
  <path d="M 80 28 L 108 44 L 108 76 L 80 92 L 52 76 L 52 44 Z" 
        fill="url(#centerGrad)" 
        stroke="#0a0a0a" 
        stroke-width="1.5"/>
  
  <!-- AI Neural Pattern inside hexagon -->
  <path d="M 64 52 L 68 60 L 64 68" 
        stroke="#0a0a0a" 
        stroke-width="2.5" 
        fill="none" 
        stroke-linecap="round"/>
  <circle cx="80" cy="60" r="4" fill="#0a0a0a"/>
  <path d="M 96 52 L 92 60 L 96 68" 
        stroke="#0a0a0a" 
        stroke-width="2.5" 
        fill="none" 
        stroke-linecap="round"/>
  
  <!-- Left Bottom Platform Node with depth -->
  <rect x="28" y="85" width="38" height="38" rx="10" 
        fill="url(#orangeGrad)" opacity="0.3"/>
  <rect x="31" y="88" width="32" height="32" rx="9" 
        fill="url(#orangeGrad)"/>
  
  <!-- Right Bottom Platform Node with depth -->
  <rect x="94" y="85" width="38" height="38" rx="10" 
        fill="url(#orangeGrad)" opacity="0.3"/>
  <rect x="97" y="88" width="32" height="32" rx="9" 
        fill="url(#orangeGrad)"/>
  
  <!-- Connection Lines with arrow indicators -->
  <!-- Center to Left Bottom -->
  <line x1="62" y1="82" x2="52" y2="92" 
        stroke="url(#orangeGrad)" 
        stroke-width="4.5" 
        stroke-linecap="round"/>
  <path d="M 52 92 L 50 88 L 54 88 Z" fill="url(#orangeGrad)"/>
  
  <!-- Center to Right Bottom -->
  <line x1="98" y1="82" x2="108" y2="92" 
        stroke="url(#orangeGrad)" 
        stroke-width="4.5" 
        stroke-linecap="round"/>
  <path d="M 108 92 L 106 88 L 110 88 Z" fill="url(#orangeGrad)"/>
  
  <!-- Subtle flow dots for animation effect -->
  <circle cx="57" cy="87" r="2" fill="url(#orangeGrad)" opacity="0.6"/>
  <circle cx="103" cy="87" r="2" fill="url(#orangeGrad)" opacity="0.6"/>
</svg>
